<?xml version="1.0" standalone="no"?>
<svg xmlns:xlink="http://www.w3.org/1999/xlink" id="wave" style="transform:rotate(180deg); transition: 0.3s" viewBox="0 0 1440 490" version="1.1" xmlns="http://www.w3.org/2000/svg"><defs><linearGradient id="sw-gradient-0" x1="0" x2="0" y1="1" y2="0"><stop stop-color="rgba(8, 50, 67, 1)" offset="0%"/><stop stop-color="rgba(8, 50, 67, 1)" offset="100%"/></linearGradient></defs><path style="transform:translate(0, 0px); opacity:1" fill="url(#sw-gradient-0)" d="M0,343L60,334.8C120,327,240,310,360,269.5C480,229,600,163,720,122.5C840,82,960,65,1080,65.3C1200,65,1320,82,1440,106.2C1560,131,1680,163,1800,196C1920,229,2040,261,2160,228.7C2280,196,2400,98,2520,98C2640,98,2760,196,2880,253.2C3000,310,3120,327,3240,310.3C3360,294,3480,245,3600,261.3C3720,278,3840,359,3960,359.3C4080,359,4200,278,4320,261.3C4440,245,4560,294,4680,277.7C4800,261,4920,180,5040,147C5160,114,5280,131,5400,155.2C5520,180,5640,212,5760,187.8C5880,163,6000,82,6120,114.3C6240,147,6360,294,6480,310.3C6600,327,6720,212,6840,196C6960,180,7080,261,7200,253.2C7320,245,7440,147,7560,106.2C7680,65,7800,82,7920,114.3C8040,147,8160,196,8280,253.2C8400,310,8520,376,8580,408.3L8640,441L8640,490L8580,490C8520,490,8400,490,8280,490C8160,490,8040,490,7920,490C7800,490,7680,490,7560,490C7440,490,7320,490,7200,490C7080,490,6960,490,6840,490C6720,490,6600,490,6480,490C6360,490,6240,490,6120,490C6000,490,5880,490,5760,490C5640,490,5520,490,5400,490C5280,490,5160,490,5040,490C4920,490,4800,490,4680,490C4560,490,4440,490,4320,490C4200,490,4080,490,3960,490C3840,490,3720,490,3600,490C3480,490,3360,490,3240,490C3120,490,3000,490,2880,490C2760,490,2640,490,2520,490C2400,490,2280,490,2160,490C2040,490,1920,490,1800,490C1680,490,1560,490,1440,490C1320,490,1200,490,1080,490C960,490,840,490,720,490C600,490,480,490,360,490C240,490,120,490,60,490L0,490Z"/></svg>